# ProBuilder 5.0.6
# https://unity3d.com/unity/features/worldbuilding/probuilder
# 28.12.2022 11:11:33

mtllib ./Pipe.mtl
o Pipe

g Pipe
v -2.85317 -0.39 0.927051
v -3 -0.39 0
v -2.85317 0.39 0.927051
v -3 0.39 0
v -2.11 -0.39 0
v -2.006729 -0.39 0.6520259
v -2.11 0.39 0
v -2.006729 0.39 0.6520259
v -2.427051 -0.39 1.763356
v -2.427051 0.39 1.763356
v -1.707026 -0.39 1.240227
v -1.707026 0.39 1.240227
v -1.763356 -0.39 2.427051
v -1.763356 0.39 2.427051
v -1.240227 -0.39 1.707026
v -1.240227 0.39 1.707026
v -0.9270509 -0.39 2.85317
v -0.9270509 0.39 2.85317
v -0.6520259 -0.39 2.006729
v -0.6520259 0.39 2.006729
v 1.311342E-07 -0.39 3
v 1.311342E-07 0.39 3
v 9.223103E-08 -0.39 2.11
v 9.223103E-08 0.39 2.11
v 0.9270508 -0.39 2.85317
v 0.9270508 0.39 2.85317
v 0.6520258 -0.39 2.006729
v 0.6520258 0.39 2.006729
v 1.763355 -0.39 2.427051
v 1.763355 0.39 2.427051
v 1.240227 -0.39 1.707026
v 1.240227 0.39 1.707026
v 2.427051 -0.39 1.763355
v 2.427051 0.39 1.763355
v 1.707026 -0.39 1.240227
v 1.707026 0.39 1.240227
v 2.853169 -0.39 0.9270511
v 2.853169 0.39 0.9270511
v 2.006729 -0.39 0.6520259
v 2.006729 0.39 0.6520259
v 3 -0.39 -2.622683E-07
v 3 0.39 -2.622683E-07
v 2.11 -0.39 -1.844621E-07
v 2.11 0.39 -1.844621E-07
v 2.85317 -0.39 -0.9270509
v 2.85317 0.39 -0.9270509
v 2.006729 -0.39 -0.6520259
v 2.006729 0.39 -0.6520259
v 2.427051 -0.39 -1.763355
v 2.427051 0.39 -1.763355
v 1.707026 -0.39 -1.240227
v 1.707026 0.39 -1.240227
v 1.763356 -0.39 -2.427051
v 1.763356 0.39 -2.427051
v 1.240227 -0.39 -1.707026
v 1.240227 0.39 -1.707026
v 0.9270513 -0.39 -2.853169
v 0.9270513 0.39 -2.853169
v 0.6520261 -0.39 -2.006729
v 0.6520261 0.39 -2.006729
v -3.577464E-08 -0.39 -3
v -3.577464E-08 0.39 -3
v -2.51615E-08 -0.39 -2.11
v -2.51615E-08 0.39 -2.11
v -0.9270514 -0.39 -2.853169
v -0.9270514 0.39 -2.853169
v -0.6520261 -0.39 -2.006729
v -0.6520261 0.39 -2.006729
v -1.763355 -0.39 -2.427051
v -1.763355 0.39 -2.427051
v -1.240227 -0.39 -1.707026
v -1.240227 0.39 -1.707026
v -2.427051 -0.39 -1.763356
v -2.427051 0.39 -1.763356
v -1.707026 -0.39 -1.240227
v -1.707026 0.39 -1.240227
v -2.85317 -0.39 -0.9270508
v -2.85317 0.39 -0.9270508
v -2.006729 -0.39 -0.6520258
v -2.006729 0.39 -0.6520258

vt 0.4693038 -0.39
vt -0.469303 -0.39
vt 0.4693038 0.39
vt -0.469303 0.39
vt 0.3300768 -0.39
vt -0.3300768 -0.39
vt 0.3300768 0.39
vt -0.3300768 0.39
vt -3 0
vt -2.85317 0.927051
vt -2.11 0
vt -2.006729 0.6520259
vt 2.85317 0.927051
vt 3 0
vt 2.006729 0.6520259
vt 2.11 0
vt -2.427051 1.763356
vt -1.707026 1.240227
vt 2.427051 1.763356
vt 1.707026 1.240227
vt -1.763356 2.427051
vt -1.240227 1.707026
vt 1.763356 2.427051
vt 1.240227 1.707026
vt -0.9270509 2.85317
vt -0.6520259 2.006729
vt 0.9270509 2.85317
vt 0.6520259 2.006729
vt 1.311342E-07 3
vt 9.223103E-08 2.11
vt 2.85317 -0.9270509
vt 2.006729 -0.6520259
vt -2.85317 -0.9270509
vt -2.006729 -0.6520259
vt 2.427051 -1.763355
vt 1.707026 -1.240227
vt -2.427051 -1.763355
vt -1.707026 -1.240227
vt 1.763356 -2.427051
vt 1.240227 -1.707026
vt -1.763356 -2.427051
vt -1.240227 -1.707026
vt 0.9270513 -2.853169
vt 0.6520261 -2.006729
vt -0.9270513 -2.853169
vt -0.6520261 -2.006729
vt -3.577464E-08 -3
vt -2.51615E-08 -2.11

vn -0.9876884 0 0.1564343
vn 0.9876884 0 -0.1564345
vn -0.8910065 0 0.4539906
vn 0.8910065 0 -0.4539904
vn -0.7071069 0 0.7071066
vn 0.7071068 0 -0.7071068
vn -0.4539904 0 0.8910065
vn 0.4539904 0 -0.8910066
vn -0.1564343 0 0.9876884
vn 0.1564345 0 -0.9876884
vn 0.1564344 0 0.9876884
vn -0.1564346 0 -0.9876883
vn 0.4539906 0 0.8910065
vn -0.4539907 0 -0.8910064
vn 0.7071068 0 0.7071068
vn -0.7071068 0 -0.7071068
vn 0.8910065 0 0.4539905
vn -0.8910065 0 -0.4539905
vn 0.9876884 0 0.1564345
vn -0.9876883 0 -0.1564348
vn 0 -1 0
vn 0 1 0

usemtl ProBuilderDefault
f 3/3/1 4/4/1 2/2/1 1/1/1
f 7/7/2 8/8/2 6/6/2 5/5/2
f 10/3/3 3/4/3 1/2/3 9/1/3
f 8/7/4 12/8/4 11/6/4 6/5/4
f 14/3/5 10/4/5 9/2/5 13/1/5
f 12/7/6 16/8/6 15/6/6 11/5/6
f 18/3/7 14/4/7 13/2/7 17/1/7
f 16/7/8 20/8/8 19/6/8 15/5/8
f 22/3/9 18/4/9 17/2/9 21/1/9
f 20/7/10 24/8/10 23/6/10 19/5/10
f 26/3/11 22/4/11 21/2/11 25/1/11
f 24/7/12 28/8/12 27/6/12 23/5/12
f 30/3/13 26/4/13 25/2/13 29/1/13
f 28/7/14 32/8/14 31/6/14 27/5/14
f 34/3/15 30/4/15 29/2/15 33/1/15
f 32/7/16 36/8/16 35/6/16 31/5/16
f 38/3/17 34/4/17 33/2/17 37/1/17
f 36/7/18 40/8/18 39/6/18 35/5/18
f 42/3/19 38/4/19 37/2/19 41/1/19
f 40/7/20 44/8/20 43/6/20 39/5/20
f 46/3/2 42/4/2 41/2/2 45/1/2
f 44/7/1 48/8/1 47/6/1 43/5/1
f 50/3/4 46/4/4 45/2/4 49/1/4
f 48/7/3 52/8/3 51/6/3 47/5/3
f 54/3/6 50/4/6 49/2/6 53/1/6
f 52/7/5 56/8/5 55/6/5 51/5/5
f 58/3/8 54/4/8 53/2/8 57/1/8
f 56/7/7 60/8/7 59/6/7 55/5/7
f 62/3/10 58/4/10 57/2/10 61/1/10
f 60/7/9 64/8/9 63/6/9 59/5/9
f 66/3/12 62/4/12 61/2/12 65/1/12
f 64/7/11 68/8/11 67/6/11 63/5/11
f 70/3/14 66/4/14 65/2/14 69/1/14
f 68/7/13 72/8/13 71/6/13 67/5/13
f 74/3/16 70/4/16 69/2/16 73/1/16
f 72/7/15 76/8/15 75/6/15 71/5/15
f 78/3/18 74/4/18 73/2/18 77/1/18
f 76/7/17 80/8/17 79/6/17 75/5/17
f 4/3/20 78/4/20 77/2/20 2/1/20
f 80/7/19 7/8/19 5/6/19 79/5/19
f 5/11/21 6/12/21 1/10/21 2/9/21
f 8/15/22 7/16/22 4/14/22 3/13/22
f 6/12/21 11/18/21 9/17/21 1/10/21
f 12/20/22 8/15/22 3/13/22 10/19/22
f 11/18/21 15/22/21 13/21/21 9/17/21
f 16/24/22 12/20/22 10/19/22 14/23/22
f 15/22/21 19/26/21 17/25/21 13/21/21
f 20/28/22 16/24/22 14/23/22 18/27/22
f 19/26/21 23/30/21 21/29/21 17/25/21
f 24/30/22 20/28/22 18/27/22 22/29/22
f 23/30/21 27/28/21 25/27/21 21/29/21
f 28/26/22 24/30/22 22/29/22 26/25/22
f 27/28/21 31/24/21 29/23/21 25/27/21
f 32/22/22 28/26/22 26/25/22 30/21/22
f 31/24/21 35/20/21 33/19/21 29/23/21
f 36/18/22 32/22/22 30/21/22 34/17/22
f 35/20/21 39/15/21 37/13/21 33/19/21
f 40/12/22 36/18/22 34/17/22 38/10/22
f 39/15/21 43/16/21 41/14/21 37/13/21
f 44/11/22 40/12/22 38/10/22 42/9/22
f 43/16/21 47/32/21 45/31/21 41/14/21
f 48/34/22 44/11/22 42/9/22 46/33/22
f 47/32/21 51/36/21 49/35/21 45/31/21
f 52/38/22 48/34/22 46/33/22 50/37/22
f 51/36/21 55/40/21 53/39/21 49/35/21
f 56/42/22 52/38/22 50/37/22 54/41/22
f 55/40/21 59/44/21 57/43/21 53/39/21
f 60/46/22 56/42/22 54/41/22 58/45/22
f 59/44/21 63/48/21 61/47/21 57/43/21
f 64/48/22 60/46/22 58/45/22 62/47/22
f 63/48/21 67/46/21 65/45/21 61/47/21
f 68/44/22 64/48/22 62/47/22 66/43/22
f 67/46/21 71/42/21 69/41/21 65/45/21
f 72/40/22 68/44/22 66/43/22 70/39/22
f 71/42/21 75/38/21 73/37/21 69/41/21
f 76/36/22 72/40/22 70/39/22 74/35/22
f 75/38/21 79/34/21 77/33/21 73/37/21
f 80/32/22 76/36/22 74/35/22 78/31/22
f 79/34/21 5/11/21 2/9/21 77/33/21
f 7/16/22 80/32/22 78/31/22 4/14/22

